<?xml version="1.0" standalone="no"?>
<!DOCTYPE svg PUBLIC "-//W3C//DTD SVG 20010904//EN"
 "http://www.w3.org/TR/2001/REC-SVG-20010904/DTD/svg10.dtd">
<svg version="1.0" xmlns="http://www.w3.org/2000/svg"
 width="512.000000pt" height="512.000000pt" viewBox="0 0 512.000000 512.000000"
 preserveAspectRatio="xMidYMid meet">

<g transform="translate(0.000000,512.000000) scale(0.100000,-0.100000)"
fill="#000000" stroke="none">
<path d="M250 5017 c-49 -16 -133 -102 -148 -153 -9 -32 -12 -387 -12 -1513
l0 -1471 1660 0 1660 0 0 170 0 170 -57 0 c-61 1 -82 10 -101 47 -19 35 -14
63 17 94 25 25 37 29 84 29 l55 0 4 123 c4 107 8 130 32 184 33 73 103 143
174 176 46 22 57 22 560 25 l512 3 0 967 c0 951 -1 968 -21 1012 -27 60 -64
98 -124 126 l-50 24 -2105 -1 c-1504 -1 -2115 -4 -2140 -12z m2288 -443 c12
-14 22 -32 22 -40 0 -20 -168 -693 -182 -727 -13 -33 -36 -47 -78 -47 -37 0
-80 39 -80 72 1 40 177 727 191 744 33 40 90 39 127 -2z m-603 -79 c29 -28 32
-70 9 -103 -9 -13 -72 -65 -140 -117 l-125 -94 123 -91 c145 -109 158 -122
158 -164 -1 -47 -40 -86 -89 -86 -26 0 -392 273 -409 306 -29 55 -13 75 176
218 98 73 186 138 197 144 33 19 74 14 100 -13z m1008 14 c59 -32 365 -272
376 -295 25 -55 5 -79 -190 -224 -100 -74 -189 -139 -199 -144 -47 -22 -110
23 -110 78 0 44 12 56 158 166 l123 91 -108 81 c-152 113 -173 135 -173 175 0
63 66 102 123 72z m102 -1124 c32 -31 32 -75 1 -112 l-24 -28 -1044 -3 c-788
-2 -1050 1 -1072 10 -32 13 -60 66 -49 95 3 10 15 28 26 41 l20 22 1059 0
1059 0 24 -25z m1110 0 c37 -36 34 -86 -6 -119 l-31 -26 -401 0 c-434 0 -440
1 -465 54 -16 32 -9 69 18 96 19 19 35 20 440 20 l421 0 24 -25z m-1450 -340
c37 -36 34 -86 -6 -119 l-31 -26 -410 0 -410 0 -29 29 c-31 31 -36 59 -17 94
24 47 21 46 461 47 l418 0 24 -25z m0 -340 c34 -33 34 -84 -1 -119 l-27 -26
-414 0 -415 0 -29 29 c-36 36 -37 70 -3 110 l26 31 419 0 420 0 24 -25z m318
-327 c53 -28 64 -92 22 -133 l-24 -25 -1055 0 -1055 0 -27 24 c-46 39 -34 114
21 136 33 14 2092 12 2118 -2z"/>
<path d="M3685 2714 c-40 -21 -64 -43 -84 -79 -14 -27 -16 -132 -19 -1140 -2
-611 0 -1133 3 -1162 8 -67 39 -112 95 -141 l45 -23 555 3 555 3 32 23 c18 12
43 37 55 55 l23 32 3 1130 c2 622 0 1149 -3 1173 -7 50 -53 108 -102 128 -20
9 -71 14 -133 14 l-100 0 0 -57 c-1 -78 -27 -134 -81 -170 -42 -28 -44 -28
-228 -32 -116 -2 -205 1 -237 8 -93 21 -144 98 -144 216 l0 35 -102 0 c-74 0
-112 -5 -133 -16z"/>
</g>
</svg>
